<mxfile host="app.diagrams.net" modified="2024-02-28T07:24:33.935Z" agent="Mozilla/5.0 (Windows NT 10.0; Win64; x64) AppleWebKit/537.36 (KHTML, like Gecko) Chrome/122.0.0.0 Safari/537.36" etag="IKFuys7om2f0yJ0xgaiJ" version="23.1.7" type="github">
  <diagram name="Сторінка-1" id="CnfTsb3GJ0VVu3IU5YYN">
    <mxGraphModel dx="1147" dy="1793" grid="1" gridSize="10" guides="1" tooltips="1" connect="1" arrows="1" fold="1" page="1" pageScale="1" pageWidth="827" pageHeight="1169" math="0" shadow="0">
      <root>
        <mxCell id="0" />
        <mxCell id="1" parent="0" />
        <mxCell id="SrQX9S5p-4wRP2en_Op1-3" value="&lt;font style=&quot;font-size: 14px;&quot;&gt;&lt;b&gt;Pending&lt;/b&gt;&lt;/font&gt;" style="ellipse;whiteSpace=wrap;html=1;align=center;" vertex="1" parent="1">
          <mxGeometry x="225" y="130" width="100" height="40" as="geometry" />
        </mxCell>
        <mxCell id="SrQX9S5p-4wRP2en_Op1-4" value="&lt;font style=&quot;font-size: 14px;&quot;&gt;&lt;b&gt;Quarantine&lt;/b&gt;&lt;/font&gt;" style="strokeWidth=2;html=1;shape=mxgraph.flowchart.database;whiteSpace=wrap;" vertex="1" parent="1">
          <mxGeometry x="170" y="390" width="130" height="110" as="geometry" />
        </mxCell>
        <mxCell id="SrQX9S5p-4wRP2en_Op1-5" value="" style="shape=umlActor;verticalLabelPosition=bottom;verticalAlign=top;html=1;outlineConnect=0;" vertex="1" parent="1">
          <mxGeometry x="260" y="-3" width="30" height="60" as="geometry" />
        </mxCell>
        <mxCell id="SrQX9S5p-4wRP2en_Op1-7" value="&lt;font style=&quot;font-size: 12px;&quot;&gt;Start&lt;/font&gt;" style="endArrow=classic;html=1;rounded=0;entryX=0.5;entryY=0;entryDx=0;entryDy=0;entryPerimeter=0;" edge="1" parent="1" source="SrQX9S5p-4wRP2en_Op1-5" target="SrQX9S5p-4wRP2en_Op1-3">
          <mxGeometry width="50" height="50" relative="1" as="geometry">
            <mxPoint x="280" y="90" as="sourcePoint" />
            <mxPoint x="275" y="170" as="targetPoint" />
          </mxGeometry>
        </mxCell>
        <mxCell id="SrQX9S5p-4wRP2en_Op1-8" value="" style="endArrow=classic;html=1;rounded=0;entryX=0.5;entryY=0;entryDx=0;entryDy=0;exitX=0.5;exitY=1;exitDx=0;exitDy=0;" edge="1" parent="1" source="SrQX9S5p-4wRP2en_Op1-3" target="SrQX9S5p-4wRP2en_Op1-9">
          <mxGeometry width="50" height="50" relative="1" as="geometry">
            <mxPoint x="390" y="430" as="sourcePoint" />
            <mxPoint x="440" y="380" as="targetPoint" />
          </mxGeometry>
        </mxCell>
        <mxCell id="SrQX9S5p-4wRP2en_Op1-10" value="&lt;font style=&quot;font-size: 12px;&quot;&gt;Check size &amp;amp; type&lt;/font&gt;" style="edgeLabel;html=1;align=center;verticalAlign=middle;resizable=0;points=[];" vertex="1" connectable="0" parent="SrQX9S5p-4wRP2en_Op1-8">
          <mxGeometry x="-0.0086" y="1" relative="1" as="geometry">
            <mxPoint as="offset" />
          </mxGeometry>
        </mxCell>
        <mxCell id="SrQX9S5p-4wRP2en_Op1-9" value="&lt;b&gt;&lt;font style=&quot;font-size: 14px;&quot;&gt;Validation&lt;/font&gt;&lt;/b&gt;" style="rounded=1;whiteSpace=wrap;html=1;" vertex="1" parent="1">
          <mxGeometry x="215" y="240" width="120" height="40" as="geometry" />
        </mxCell>
        <mxCell id="SrQX9S5p-4wRP2en_Op1-11" value="" style="endArrow=classic;html=1;rounded=0;entryX=0.5;entryY=0;entryDx=0;entryDy=0;entryPerimeter=0;exitX=0.43;exitY=1.055;exitDx=0;exitDy=0;exitPerimeter=0;" edge="1" parent="1" source="SrQX9S5p-4wRP2en_Op1-9" target="SrQX9S5p-4wRP2en_Op1-4">
          <mxGeometry width="50" height="50" relative="1" as="geometry">
            <mxPoint x="390" y="480" as="sourcePoint" />
            <mxPoint x="440" y="430" as="targetPoint" />
          </mxGeometry>
        </mxCell>
        <mxCell id="SrQX9S5p-4wRP2en_Op1-12" value="&lt;font style=&quot;font-size: 12px;&quot;&gt;Validated&lt;/font&gt;" style="edgeLabel;html=1;align=center;verticalAlign=middle;resizable=0;points=[];" vertex="1" connectable="0" parent="SrQX9S5p-4wRP2en_Op1-11">
          <mxGeometry x="0.0272" y="-1" relative="1" as="geometry">
            <mxPoint as="offset" />
          </mxGeometry>
        </mxCell>
      </root>
    </mxGraphModel>
  </diagram>
</mxfile>
